<mxfile host="app.diagrams.net" modified="2023-06-16T10:31:25.904Z" agent="Mozilla/5.0 (X11; Ubuntu; Linux x86_64; rv:109.0) Gecko/20100101 Firefox/114.0" etag="7_ARcwJXoJwRpj2jlD9W" version="21.4.0" type="github">
  <diagram name="Page-1" id="bfe91b75-5d2c-26a0-9c1d-138518896778">
    <mxGraphModel dx="1959" dy="1073" grid="1" gridSize="10" guides="1" tooltips="1" connect="1" arrows="1" fold="1" page="1" pageScale="1" pageWidth="1100" pageHeight="850" background="none" math="0" shadow="0">
      <root>
        <mxCell id="0" />
        <mxCell id="1" parent="0" />
        <mxCell id="DMndxbd9jJ52N1i7lp6a-43" value="" style="rounded=1;whiteSpace=wrap;html=1;" vertex="1" parent="1">
          <mxGeometry x="180" y="280" width="206" height="120" as="geometry" />
        </mxCell>
        <mxCell id="DMndxbd9jJ52N1i7lp6a-13" value="" style="verticalLabelPosition=bottom;html=1;verticalAlign=top;align=center;strokeColor=none;fillColor=#00BEF2;shape=mxgraph.azure.cloud;" vertex="1" parent="1">
          <mxGeometry x="521" y="70" width="110" height="70" as="geometry" />
        </mxCell>
        <mxCell id="DMndxbd9jJ52N1i7lp6a-45" style="edgeStyle=orthogonalEdgeStyle;rounded=0;orthogonalLoop=1;jettySize=auto;html=1;exitX=0.5;exitY=0;exitDx=0;exitDy=0;exitPerimeter=0;entryX=0.5;entryY=1;entryDx=0;entryDy=0;entryPerimeter=0;endArrow=none;endFill=0;" edge="1" parent="1" source="DMndxbd9jJ52N1i7lp6a-14" target="DMndxbd9jJ52N1i7lp6a-13">
          <mxGeometry relative="1" as="geometry" />
        </mxCell>
        <mxCell id="DMndxbd9jJ52N1i7lp6a-14" value="FIREWALL" style="sketch=0;points=[[0.015,0.015,0],[0.985,0.015,0],[0.985,0.985,0],[0.015,0.985,0],[0.25,0,0],[0.5,0,0],[0.75,0,0],[1,0.25,0],[1,0.5,0],[1,0.75,0],[0.75,1,0],[0.5,1,0],[0.25,1,0],[0,0.75,0],[0,0.5,0],[0,0.25,0]];verticalLabelPosition=bottom;html=1;verticalAlign=top;aspect=fixed;align=center;pointerEvents=1;shape=mxgraph.cisco19.rect;prIcon=firewall;fillColor=#FAFAFA;strokeColor=#005073;" vertex="1" parent="1">
          <mxGeometry x="544" y="190" width="64" height="50" as="geometry" />
        </mxCell>
        <mxCell id="DMndxbd9jJ52N1i7lp6a-17" style="rounded=0;orthogonalLoop=1;jettySize=auto;html=1;exitX=0.5;exitY=1;exitDx=0;exitDy=0;exitPerimeter=0;entryX=0.5;entryY=0;entryDx=0;entryDy=0;entryPerimeter=0;endArrow=none;endFill=0;" edge="1" parent="1" source="DMndxbd9jJ52N1i7lp6a-16" target="DMndxbd9jJ52N1i7lp6a-38">
          <mxGeometry relative="1" as="geometry">
            <mxPoint x="671" y="470" as="targetPoint" />
          </mxGeometry>
        </mxCell>
        <mxCell id="DMndxbd9jJ52N1i7lp6a-33" style="rounded=1;orthogonalLoop=1;jettySize=auto;html=1;exitX=0.5;exitY=0;exitDx=0;exitDy=0;exitPerimeter=0;endArrow=none;endFill=0;shadow=0;" edge="1" parent="1" source="DMndxbd9jJ52N1i7lp6a-16" target="DMndxbd9jJ52N1i7lp6a-14">
          <mxGeometry relative="1" as="geometry" />
        </mxCell>
        <mxCell id="DMndxbd9jJ52N1i7lp6a-16" value="" style="sketch=0;points=[[0.015,0.015,0],[0.985,0.015,0],[0.985,0.985,0],[0.015,0.985,0],[0.25,0,0],[0.5,0,0],[0.75,0,0],[1,0.25,0],[1,0.5,0],[1,0.75,0],[0.75,1,0],[0.5,1,0],[0.25,1,0],[0,0.75,0],[0,0.5,0],[0,0.25,0]];verticalLabelPosition=bottom;html=1;verticalAlign=top;aspect=fixed;align=center;pointerEvents=1;shape=mxgraph.cisco19.rect;prIcon=l3_switch;fillColor=#FAFAFA;strokeColor=#005073;" vertex="1" parent="1">
          <mxGeometry x="551" y="310" width="50" height="50" as="geometry" />
        </mxCell>
        <mxCell id="DMndxbd9jJ52N1i7lp6a-19" style="rounded=0;orthogonalLoop=1;jettySize=auto;html=1;exitX=0.5;exitY=0;exitDx=0;exitDy=0;exitPerimeter=0;endArrow=none;endFill=0;" edge="1" parent="1" source="DMndxbd9jJ52N1i7lp6a-18">
          <mxGeometry relative="1" as="geometry">
            <mxPoint x="576" y="360" as="targetPoint" />
          </mxGeometry>
        </mxCell>
        <mxCell id="DMndxbd9jJ52N1i7lp6a-18" value="" style="sketch=0;points=[[0.015,0.015,0],[0.985,0.015,0],[0.985,0.985,0],[0.015,0.985,0],[0.25,0,0],[0.5,0,0],[0.75,0,0],[1,0.25,0],[1,0.5,0],[1,0.75,0],[0.75,1,0],[0.5,1,0],[0.25,1,0],[0,0.75,0],[0,0.5,0],[0,0.25,0]];verticalLabelPosition=bottom;html=1;verticalAlign=top;aspect=fixed;align=center;pointerEvents=1;shape=mxgraph.cisco19.rect;prIcon=workgroup_switch;fillColor=#FAFAFA;strokeColor=#005073;" vertex="1" parent="1">
          <mxGeometry x="456.25" y="430" width="50" height="50" as="geometry" />
        </mxCell>
        <mxCell id="DMndxbd9jJ52N1i7lp6a-36" style="edgeStyle=orthogonalEdgeStyle;rounded=0;orthogonalLoop=1;jettySize=auto;html=1;endArrow=none;endFill=0;entryX=0.402;entryY=0.991;entryDx=0;entryDy=0;entryPerimeter=0;" edge="1" parent="1" source="DMndxbd9jJ52N1i7lp6a-23" target="DMndxbd9jJ52N1i7lp6a-18">
          <mxGeometry relative="1" as="geometry">
            <mxPoint x="466.25" y="480" as="targetPoint" />
            <Array as="points">
              <mxPoint x="456.25" y="525" />
              <mxPoint x="476.25" y="525" />
            </Array>
          </mxGeometry>
        </mxCell>
        <mxCell id="DMndxbd9jJ52N1i7lp6a-23" value="" style="sketch=0;pointerEvents=1;shadow=0;dashed=0;html=1;strokeColor=none;fillColor=#505050;labelPosition=center;verticalLabelPosition=bottom;verticalAlign=top;outlineConnect=0;align=center;shape=mxgraph.office.devices.workstation_pc;" vertex="1" parent="1">
          <mxGeometry x="418.75" y="570" width="53" height="59" as="geometry" />
        </mxCell>
        <mxCell id="DMndxbd9jJ52N1i7lp6a-37" style="edgeStyle=orthogonalEdgeStyle;rounded=0;orthogonalLoop=1;jettySize=auto;html=1;endArrow=none;endFill=0;entryX=0.595;entryY=0.974;entryDx=0;entryDy=0;entryPerimeter=0;" edge="1" parent="1" source="DMndxbd9jJ52N1i7lp6a-24" target="DMndxbd9jJ52N1i7lp6a-18">
          <mxGeometry relative="1" as="geometry">
            <mxPoint x="486.25" y="479.9999999999998" as="targetPoint" />
            <Array as="points">
              <mxPoint x="506.25" y="526" />
              <mxPoint x="486.25" y="526" />
            </Array>
          </mxGeometry>
        </mxCell>
        <mxCell id="DMndxbd9jJ52N1i7lp6a-24" value="" style="sketch=0;pointerEvents=1;shadow=0;dashed=0;html=1;strokeColor=none;fillColor=#505050;labelPosition=center;verticalLabelPosition=bottom;verticalAlign=top;outlineConnect=0;align=center;shape=mxgraph.office.devices.workstation_pc;" vertex="1" parent="1">
          <mxGeometry x="490.75" y="570" width="53" height="59" as="geometry" />
        </mxCell>
        <mxCell id="DMndxbd9jJ52N1i7lp6a-27" value="DNS" style="sketch=0;points=[[0.015,0.015,0],[0.985,0.015,0],[0.985,0.985,0],[0.015,0.985,0],[0.25,0,0],[0.5,0,0],[0.75,0,0],[1,0.25,0],[1,0.5,0],[1,0.75,0],[0.75,1,0],[0.5,1,0],[0.25,1,0],[0,0.75,0],[0,0.5,0],[0,0.25,0]];verticalLabelPosition=bottom;html=1;verticalAlign=top;aspect=fixed;align=center;pointerEvents=1;shape=mxgraph.cisco19.dns_server;fillColor=#005073;strokeColor=none;" vertex="1" parent="1">
          <mxGeometry x="321" y="295" width="44" height="80" as="geometry" />
        </mxCell>
        <mxCell id="DMndxbd9jJ52N1i7lp6a-28" value="AD" style="sketch=0;points=[[0.015,0.015,0],[0.985,0.015,0],[0.985,0.985,0],[0.015,0.985,0],[0.25,0,0],[0.5,0,0],[0.75,0,0],[1,0.25,0],[1,0.5,0],[1,0.75,0],[0.75,1,0],[0.5,1,0],[0.25,1,0],[0,0.75,0],[0,0.5,0],[0,0.25,0]];verticalLabelPosition=bottom;html=1;verticalAlign=top;aspect=fixed;align=center;pointerEvents=1;shape=mxgraph.cisco19.server;fillColor=#005073;strokeColor=none;" vertex="1" parent="1">
          <mxGeometry x="201" y="295" width="44" height="80" as="geometry" />
        </mxCell>
        <mxCell id="DMndxbd9jJ52N1i7lp6a-32" value="WEB" style="sketch=0;points=[[0.015,0.015,0],[0.985,0.015,0],[0.985,0.985,0],[0.015,0.985,0],[0.25,0,0],[0.5,0,0],[0.75,0,0],[1,0.25,0],[1,0.5,0],[1,0.75,0],[0.75,1,0],[0.5,1,0],[0.25,1,0],[0,0.75,0],[0,0.5,0],[0,0.25,0]];verticalLabelPosition=bottom;html=1;verticalAlign=top;aspect=fixed;align=center;pointerEvents=1;shape=mxgraph.cisco19.server;fillColor=#005073;strokeColor=none;" vertex="1" parent="1">
          <mxGeometry x="261" y="295" width="44" height="80" as="geometry" />
        </mxCell>
        <mxCell id="DMndxbd9jJ52N1i7lp6a-38" value="" style="sketch=0;points=[[0.015,0.015,0],[0.985,0.015,0],[0.985,0.985,0],[0.015,0.985,0],[0.25,0,0],[0.5,0,0],[0.75,0,0],[1,0.25,0],[1,0.5,0],[1,0.75,0],[0.75,1,0],[0.5,1,0],[0.25,1,0],[0,0.75,0],[0,0.5,0],[0,0.25,0]];verticalLabelPosition=bottom;html=1;verticalAlign=top;aspect=fixed;align=center;pointerEvents=1;shape=mxgraph.cisco19.rect;prIcon=workgroup_switch;fillColor=#FAFAFA;strokeColor=#005073;" vertex="1" parent="1">
          <mxGeometry x="645.75" y="430" width="50" height="50" as="geometry" />
        </mxCell>
        <mxCell id="DMndxbd9jJ52N1i7lp6a-39" style="edgeStyle=orthogonalEdgeStyle;rounded=0;orthogonalLoop=1;jettySize=auto;html=1;endArrow=none;endFill=0;entryX=0.402;entryY=0.991;entryDx=0;entryDy=0;entryPerimeter=0;" edge="1" source="DMndxbd9jJ52N1i7lp6a-40" target="DMndxbd9jJ52N1i7lp6a-38" parent="1">
          <mxGeometry relative="1" as="geometry">
            <mxPoint x="655.75" y="480" as="targetPoint" />
            <Array as="points">
              <mxPoint x="645.75" y="525" />
              <mxPoint x="665.75" y="525" />
            </Array>
          </mxGeometry>
        </mxCell>
        <mxCell id="DMndxbd9jJ52N1i7lp6a-40" value="" style="sketch=0;pointerEvents=1;shadow=0;dashed=0;html=1;strokeColor=none;fillColor=#505050;labelPosition=center;verticalLabelPosition=bottom;verticalAlign=top;outlineConnect=0;align=center;shape=mxgraph.office.devices.workstation_pc;" vertex="1" parent="1">
          <mxGeometry x="608.25" y="570" width="53" height="59" as="geometry" />
        </mxCell>
        <mxCell id="DMndxbd9jJ52N1i7lp6a-41" style="edgeStyle=orthogonalEdgeStyle;rounded=0;orthogonalLoop=1;jettySize=auto;html=1;endArrow=none;endFill=0;entryX=0.595;entryY=0.974;entryDx=0;entryDy=0;entryPerimeter=0;" edge="1" source="DMndxbd9jJ52N1i7lp6a-42" target="DMndxbd9jJ52N1i7lp6a-38" parent="1">
          <mxGeometry relative="1" as="geometry">
            <mxPoint x="675.75" y="479.9999999999998" as="targetPoint" />
            <Array as="points">
              <mxPoint x="695.75" y="526" />
              <mxPoint x="675.75" y="526" />
            </Array>
          </mxGeometry>
        </mxCell>
        <mxCell id="DMndxbd9jJ52N1i7lp6a-42" value="" style="sketch=0;pointerEvents=1;shadow=0;dashed=0;html=1;strokeColor=none;fillColor=#505050;labelPosition=center;verticalLabelPosition=bottom;verticalAlign=top;outlineConnect=0;align=center;shape=mxgraph.office.devices.workstation_pc;" vertex="1" parent="1">
          <mxGeometry x="680.25" y="570" width="53" height="59" as="geometry" />
        </mxCell>
        <mxCell id="DMndxbd9jJ52N1i7lp6a-44" style="edgeStyle=orthogonalEdgeStyle;rounded=0;orthogonalLoop=1;jettySize=auto;html=1;entryX=-0.011;entryY=0.6;entryDx=0;entryDy=0;entryPerimeter=0;endArrow=none;endFill=0;" edge="1" parent="1" source="DMndxbd9jJ52N1i7lp6a-43" target="DMndxbd9jJ52N1i7lp6a-16">
          <mxGeometry relative="1" as="geometry" />
        </mxCell>
        <mxCell id="DMndxbd9jJ52N1i7lp6a-47" value="&lt;h1&gt;&lt;font style=&quot;font-size: 22px;&quot; face=&quot;Tahoma&quot; color=&quot;#f00a0a&quot;&gt;ISP&lt;/font&gt;&lt;/h1&gt;" style="text;html=1;align=center;verticalAlign=middle;resizable=0;points=[];autosize=1;strokeColor=none;fillColor=none;" vertex="1" parent="1">
          <mxGeometry x="543.75" y="80" width="70" height="80" as="geometry" />
        </mxCell>
        <mxCell id="DMndxbd9jJ52N1i7lp6a-52" value="" style="group" vertex="1" connectable="0" parent="1">
          <mxGeometry x="890" y="340" width="90" height="75" as="geometry" />
        </mxCell>
        <mxCell id="DMndxbd9jJ52N1i7lp6a-49" value="" style="shape=image;html=1;verticalAlign=top;verticalLabelPosition=bottom;labelBackgroundColor=#ffffff;imageAspect=0;aspect=fixed;image=https://cdn0.iconfinder.com/data/icons/kameleon-free-pack/110/Hacker-128.png" vertex="1" parent="DMndxbd9jJ52N1i7lp6a-52">
          <mxGeometry x="10" width="70" height="70" as="geometry" />
        </mxCell>
        <mxCell id="DMndxbd9jJ52N1i7lp6a-51" value="" style="verticalLabelPosition=bottom;html=1;verticalAlign=top;align=center;strokeColor=none;fillColor=#00BEF2;shape=mxgraph.azure.laptop;pointerEvents=1;" vertex="1" parent="DMndxbd9jJ52N1i7lp6a-52">
          <mxGeometry y="15" width="90" height="60" as="geometry" />
        </mxCell>
        <mxCell id="DMndxbd9jJ52N1i7lp6a-53" style="edgeStyle=orthogonalEdgeStyle;rounded=0;orthogonalLoop=1;jettySize=auto;html=1;entryX=0.979;entryY=0.79;entryDx=0;entryDy=0;entryPerimeter=0;endArrow=none;endFill=0;" edge="1" parent="1" source="DMndxbd9jJ52N1i7lp6a-51" target="DMndxbd9jJ52N1i7lp6a-13">
          <mxGeometry relative="1" as="geometry">
            <Array as="points">
              <mxPoint x="935" y="270" />
              <mxPoint x="730" y="270" />
              <mxPoint x="730" y="125" />
            </Array>
          </mxGeometry>
        </mxCell>
        <mxCell id="DMndxbd9jJ52N1i7lp6a-55" value="www.example.org" style="text;html=1;align=center;verticalAlign=middle;resizable=0;points=[];autosize=1;strokeColor=none;fillColor=none;fontSize=17;" vertex="1" parent="1">
          <mxGeometry x="745" y="240" width="160" height="30" as="geometry" />
        </mxCell>
        <mxCell id="DMndxbd9jJ52N1i7lp6a-56" value="USERS" style="text;html=1;align=center;verticalAlign=middle;resizable=0;points=[];autosize=1;strokeColor=none;fillColor=none;" vertex="1" parent="1">
          <mxGeometry x="640.75" y="638" width="60" height="30" as="geometry" />
        </mxCell>
        <mxCell id="DMndxbd9jJ52N1i7lp6a-57" value="Webadmin" style="text;html=1;align=center;verticalAlign=middle;resizable=0;points=[];autosize=1;strokeColor=none;fillColor=none;" vertex="1" parent="1">
          <mxGeometry x="410.75" y="638" width="80" height="30" as="geometry" />
        </mxCell>
        <mxCell id="DMndxbd9jJ52N1i7lp6a-58" value="Sysadmins" style="text;html=1;align=center;verticalAlign=middle;resizable=0;points=[];autosize=1;strokeColor=none;fillColor=none;" vertex="1" parent="1">
          <mxGeometry x="477.25" y="638" width="80" height="30" as="geometry" />
        </mxCell>
        <mxCell id="DMndxbd9jJ52N1i7lp6a-60" value="" style="shape=image;html=1;verticalAlign=top;verticalLabelPosition=bottom;labelBackgroundColor=#ffffff;imageAspect=0;aspect=fixed;image=https://cdn2.iconfinder.com/data/icons/crystalproject/128x128/apps/linuxconf.png" vertex="1" parent="1">
          <mxGeometry x="517" y="567" width="29" height="29" as="geometry" />
        </mxCell>
      </root>
    </mxGraphModel>
  </diagram>
</mxfile>
